<svg xmlns="http://www.w3.org/2000/svg" width="37" height="37" fill="none" viewBox="0 0 37 37">
  <circle cx="18.5" cy="18.5" r="18.5" fill="#C44444"/>
  <path fill="#fff" d="M13.02 18.56c-1.027 0-1.867-.347-2.52-1.04-.64-.707-.96-1.647-.96-2.82 0-1.173.32-2.107.96-2.8.653-.707 1.493-1.06 2.52-1.06s1.86.353 2.5 1.06c.64.693.96 1.627.96 2.8 0 1.173-.32 2.113-.96 2.82-.64.693-1.473 1.04-2.5 1.04ZM21.36 11h2.38l-9.56 14H11.8l9.56-14Zm-8.34 5.92a1.21 1.21 0 0 0 1.06-.56c.267-.373.4-.927.4-1.66 0-.733-.133-1.287-.4-1.66a1.21 1.21 0 0 0-1.06-.56c-.44 0-.793.193-1.06.58-.267.373-.4.92-.4 1.64 0 .72.133 1.273.4 1.66.267.373.62.56 1.06.56Zm9.5 8.24a3.545 3.545 0 0 1-1.8-.46 3.272 3.272 0 0 1-1.22-1.36c-.293-.587-.44-1.267-.44-2.04 0-.773.147-1.453.44-2.04.293-.587.7-1.033 1.22-1.34a3.43 3.43 0 0 1 1.8-.48c1.027 0 1.86.353 2.5 1.06.653.693.98 1.627.98 2.8 0 1.173-.327 2.113-.98 2.82-.64.693-1.473 1.04-2.5 1.04Zm0-1.64a1.21 1.21 0 0 0 1.06-.56c.267-.387.4-.94.4-1.66s-.133-1.267-.4-1.64c-.253-.387-.607-.58-1.06-.58-.44 0-.793.187-1.06.56-.267.373-.4.927-.4 1.66 0 .733.133 1.287.4 1.66s.62.56 1.06.56Z"/>
</svg>
