<svg xmlns="http://www.w3.org/2000/svg" width="1051" height="316" fill="none" viewBox="0 0 1051 316">
  <path fill="#fff" fill-opacity=".2" d="M0 25.572c11.07 0 18.453 7.307 18.453 18.268v177.91c0 10.959-7.382 18.264-18.453 18.264v7.308h80.08v-.366c74.175-3.655 111.817-59.184 111.817-114.344 0-55.527-37.642-110.329-111.817-113.98v-.364H0v7.305Zm63.474 213.344V26.302h8.488c48.711 0 73.069 52.972 73.069 105.943 0 52.604-24.358 105.939-73.069 106.67h-8.488v.001Zm221.79 10.23c25.832 0 59.043-17.902 59.043-46.395 0-16.073-9.224-23.016-19.188-23.016-11.441 0-23.989 9.137-23.989 23.016 16.978 0 20.666 28.493-6.272 28.86-20.295-1.826-41.7-21.917-41.7-66.489v-.365h93.731c0-30.321-13.651-84.39-59.781-84.39-106.28 0-108.494 168.778-1.844 168.778v.001Zm-31.738-93.886c.738-16.807 6.643-65.758 31.738-65.758 17.344 0 21.403 43.109 18.821 65.758h-50.559Zm178.242 92.061v-7.308c-11.071 0-18.453-7.305-18.453-18.265V3.284h-7.748c-12.179 11.326-30.261 16.44-46.498 16.44-2.952 0-5.536 0-8.489-.364v7.304c11.071 0 18.453 7.31 18.453 18.268v176.816c0 10.959-7.382 18.264-18.453 18.264v7.308h81.188v.001Zm91.888 0v-7.308c-11.073 0-18.452-7.305-18.452-18.265v-76.717c0-31.419 12.179-51.877 23.25-51.877 8.857 0 16.973 13.885 16.973 46.396v84.023c0 9.865-6.641 16.44-16.605 16.44v7.308h77.496v-7.308c-9.964 0-16.604-6.575-16.604-16.44v-85.848c1.474-27.035 12.544-44.206 22.877-44.206 8.859 0 16.977 13.52 16.977 46.031v85.848c0 62.839 33.58 90.602 69.375 90.602 59.785 0 62.369-56.626 23.619-56.626-12.177 0-18.821 9.864-18.821 18.633h1.478c15.867 0 12.545 28.862-5.166 28.862-23.987 0-26.203-23.748-26.203-58.087V148.681c0-25.205-.739-67.215-50.926-67.215-20.294 0-32.106 12.419-38.011 28.131-5.904-15.345-18.449-28.13-46.127-28.13-16.236 0-26.94 7.671-33.581 18.993v-17.9h-7.75c-12.178 11.325-30.26 16.439-46.497 16.439-2.955 0-5.537 0-8.488-.364v7.305c11.071 0 18.449 7.306 18.449 18.267v97.541c0 10.96-7.378 18.265-18.449 18.265v7.308h81.186ZM698.208 105.94c11.071 0 18.45 7.307 18.45 18.268v97.541c0 10.959-7.379 18.264-18.45 18.264v7.308h81.187v-7.308c-11.071 0-18.452-7.305-18.452-18.264V82.561h-8.119C740.646 93.886 722.934 99 706.697 99c-2.955 0-5.537 0-8.489-.364v7.305-.001Zm45.021-34.703c33.949 0 33.949-47.493 0-47.493-34.319 0-34.319 47.493 0 47.493Zm46.865 27.398v7.305c11.073 0 18.452 7.307 18.452 18.268v97.541c0 10.959-7.379 18.264-18.452 18.264v7.308h81.187v-7.308c-11.071 0-18.45-7.305-18.45-18.264V149.78C857.997 99 912.613 13.154 956.159 13.154c14.39 0 18.819 27.03-12.916 27.03 0 13.884 12.177 24.478 23.617 24.478C1009.3 64.662 1007.08 0 956.159 0c-39.119 0-83.033 56.988-103.328 108.133V82.561h-7.75C832.904 93.886 814.82 99 798.583 99c-2.953 0-5.537 0-8.489-.364Zm100.375 110.328c0 24.475 26.571 40.916 54.248 40.916 19.192 0 33.953-7.308 43.546-18.635 6.273 11.694 18.817 17.538 31.367 17.538 15.87 0 31.37-9.499 31.37-26.669h-8.12c0 6.942-4.06 11.325-7.75 11.325-3.32 0-6.27-3.286-6.27-11.689v-54.8c0-56.988-13.29-88.04-62-88.04-76.02 0-72.33 63.932-35.427 63.932 12.545 0 23.248-6.578 23.248-20.458-25.464-2.925-21.035-33.244-1.843-33.244 25.461 0 30.998 27.397 32.104 54.428-18.82 21.556-94.473 16.441-94.473 65.396Zm94.474-50.052c0 8.402-.368 16.442-.368 22.289v33.241c-6.276 12.786-16.978 19.361-26.203 19.361-11.071 0-20.295-8.404-20.295-24.839 0-29.595 30.259-35.435 46.866-50.052Z"/>
</svg>
