<svg xmlns="http://www.w3.org/2000/svg" width="29" height="51" fill="none" viewBox="0 0 29 51">
  <path fill="#2F2F2F" d="M17.913 51H9.73a2.479 2.479 0 0 1-2.479-2.474V30.105H2.478A2.48 2.48 0 0 1 0 27.63v-7.894a2.479 2.479 0 0 1 2.478-2.474h4.774V13.31c0-3.92 1.233-7.254 3.565-9.642C13.16 1.268 16.434 0 20.286 0l6.24.01A2.48 2.48 0 0 1 29 2.484v7.33a2.478 2.478 0 0 1-2.478 2.473l-4.201.002c-1.281 0-1.608.256-1.678.335-.114.13-.251.498-.251 1.516v3.123h5.815c.437 0 .861.108 1.226.31a2.482 2.482 0 0 1 1.275 2.164l-.003 7.894a2.479 2.479 0 0 1-2.478 2.473h-5.835v18.422A2.48 2.48 0 0 1 17.912 51Zm-7.665-2.99h7.148V28.766c0-.91.742-1.652 1.655-1.652h6.659l.002-6.861H19.05c-.912 0-1.654-.74-1.654-1.652V14.14c0-1.168.119-2.497 1.002-3.495 1.067-1.207 2.75-1.346 3.922-1.346l3.685-.002V3l-5.722-.01c-6.19 0-10.036 3.956-10.036 10.321v5.291c0 .91-.742 1.652-1.654 1.652H2.995v6.861h5.598c.912 0 1.655.741 1.655 1.652V48.01ZM26.52 3Z"/>
</svg>
