<svg xmlns="http://www.w3.org/2000/svg" width="51" height="51" fill="none" viewBox="0 0 51 51">
  <path fill="#2F2F2F" fill-rule="evenodd" d="M37.195 0h-23.39C6.193 0 0 6.193 0 13.805v23.39C0 44.807 6.193 51 13.805 51h23.39C44.807 51 51 44.807 51 37.195v-23.39C51 6.193 44.807 0 37.195 0ZM48.01 37.195c0 5.963-4.852 10.815-10.815 10.815h-23.39c-5.963 0-10.815-4.852-10.815-10.815v-23.39C2.99 7.842 7.842 2.99 13.805 2.99h23.39c5.963 0 10.815 4.852 10.815 10.815v23.39ZM25.5 11.555c-7.69 0-13.945 6.256-13.945 13.945 0 7.69 6.256 13.945 13.945 13.945 7.69 0 13.945-6.255 13.945-13.945S33.189 11.555 25.5 11.555Zm0 24.9c-6.04 0-10.955-4.914-10.955-10.955 0-6.04 4.915-10.955 10.955-10.955S36.455 19.46 36.455 25.5 31.541 36.455 25.5 36.455Zm10.158-25.732a4.125 4.125 0 0 1 4.12-4.12 4.125 4.125 0 0 1 4.121 4.12 4.126 4.126 0 0 1-4.12 4.121 4.125 4.125 0 0 1-4.121-4.12Zm2.99 0a1.131 1.131 0 0 0 2.262 0 1.132 1.132 0 0 0-2.262 0Z" clip-rule="evenodd"/>
</svg>
