<svg width="1051" height="316" viewBox="0 0 1051 316" fill="none" xmlns="http://www.w3.org/2000/svg">
<path d="M0 25.5721C11.0709 25.5721 18.4532 32.8785 18.4532 43.8398V221.75C18.4532 232.709 11.0709 240.014 0 240.014V247.322H80.08V246.956C154.255 243.301 191.897 187.772 191.897 132.612C191.897 77.0847 154.255 22.2834 80.08 18.632V18.268H0V25.5727V25.5721ZM63.4737 238.916V26.3024H71.9624C120.673 26.3024 145.031 79.2737 145.031 132.245C145.031 184.849 120.673 238.184 71.9624 238.915H63.4737V238.916ZM285.264 249.146C311.096 249.146 344.307 231.244 344.307 202.751C344.307 186.678 335.083 179.735 325.119 179.735C313.678 179.735 301.13 188.872 301.13 202.751C318.108 202.751 321.796 231.244 294.858 231.611C274.563 229.785 253.158 209.694 253.158 165.122V164.757H346.889C346.889 134.436 333.238 80.3676 287.108 80.3676C180.828 80.3676 178.614 249.145 285.264 249.145L285.264 249.146ZM253.526 155.26C254.264 138.453 260.169 89.5023 285.264 89.5023C302.608 89.5023 306.667 132.611 304.085 155.26H253.526ZM431.768 247.321V240.013C420.697 240.013 413.315 232.708 413.315 221.748V3.28434H405.567C393.388 14.6096 375.306 19.7237 359.069 19.7237C356.117 19.7237 353.533 19.7237 350.58 19.3597V26.6644C361.651 26.6644 369.033 33.9742 369.033 44.9321V221.748C369.033 232.707 361.651 240.012 350.58 240.012V247.32H431.768V247.321ZM523.656 247.321V240.013C512.583 240.013 505.204 232.708 505.204 221.748V145.031C505.204 113.612 517.383 93.1537 528.454 93.1537C537.311 93.1537 545.427 107.039 545.427 139.55V223.573C545.427 233.438 538.786 240.013 528.822 240.013V247.321H606.318V240.013C596.354 240.013 589.714 233.438 589.714 223.573V148.681C589.714 145.397 589.714 141.74 589.714 137.725C591.188 110.69 602.258 93.5194 612.591 93.5194C621.45 93.5194 629.568 107.039 629.568 139.55V225.398C629.568 288.237 663.148 316 698.943 316C758.728 316 761.312 259.374 722.562 259.374C710.385 259.374 703.741 269.238 703.741 278.007C704.109 278.007 704.848 278.007 705.219 278.007C721.086 278.007 717.764 306.869 700.053 306.869C676.066 306.869 673.85 283.121 673.85 248.782V148.681C673.85 123.476 673.111 81.4662 622.924 81.4662C602.63 81.4662 590.818 93.885 584.913 109.597C579.009 94.2524 566.464 81.4662 538.786 81.4662C522.55 81.4662 511.846 89.1382 505.205 100.46V82.5597H497.455C485.277 93.8849 467.195 98.999 450.958 98.999C448.003 98.999 445.421 98.999 442.47 98.6351V105.94C453.541 105.94 460.919 113.246 460.919 124.207V221.748C460.919 232.708 453.541 240.013 442.47 240.013V247.321H523.656L523.656 247.321ZM698.208 105.94C709.279 105.94 716.658 113.247 716.658 124.208V221.749C716.658 232.708 709.279 240.013 698.208 240.013V247.321H779.395V240.013C768.324 240.013 760.943 232.708 760.943 221.749V82.5606H752.824C740.646 93.8858 722.934 98.9999 706.697 98.9999C703.742 98.9999 701.16 98.9999 698.208 98.636V105.941V105.94ZM743.229 71.2366C777.178 71.2366 777.178 23.7435 743.229 23.7435C708.91 23.7435 708.91 71.2366 743.229 71.2366ZM790.094 98.6355V105.94C801.167 105.94 808.546 113.247 808.546 124.208V221.749C808.546 232.708 801.167 240.013 790.094 240.013V247.321H871.281V240.013C860.21 240.013 852.831 232.708 852.831 221.749V149.78C857.997 98.9995 912.613 13.1536 956.159 13.1536C970.549 13.1536 974.978 40.1833 943.243 40.1833C943.243 54.0682 955.42 64.6622 966.86 64.6622C1009.3 64.6622 1007.08 0 956.159 0C917.04 0 873.126 56.9883 852.831 108.133V82.5607H845.081C832.904 93.8859 814.82 99 798.583 99C795.63 99 793.046 99 790.094 98.6361L790.094 98.6355ZM890.469 208.963C890.469 233.438 917.04 249.879 944.717 249.879C963.909 249.879 978.67 242.571 988.263 231.244C994.536 242.938 1007.08 248.782 1019.63 248.782C1035.5 248.782 1051 239.283 1051 222.113H1042.88C1042.88 229.055 1038.82 233.438 1035.13 233.438C1031.81 233.438 1028.86 230.152 1028.86 221.749V166.949C1028.86 109.961 1015.57 78.9086 966.86 78.9086C890.84 78.9086 894.53 142.841 931.433 142.841C943.978 142.841 954.681 136.263 954.681 122.383C929.217 119.458 933.646 89.1387 952.838 89.1387C978.299 89.1387 983.836 116.536 984.942 143.567C966.122 165.123 890.469 160.008 890.469 208.963H890.469ZM984.943 158.911C984.943 167.313 984.575 175.353 984.575 181.2V214.441C978.299 227.227 967.597 233.802 958.372 233.802C947.301 233.802 938.077 225.398 938.077 208.963C938.077 179.368 968.336 173.528 984.943 158.911Z" fill="white" fill-opacity="0.2"/>
</svg>
