<svg xmlns="http://www.w3.org/2000/svg" width="23" height="27" fill="none" viewBox="0 0 23 27">
  <path fill="#000" stroke="#fff" d="M21.117 6.86h-2.976C17.753 3.564 14.944 1 11.547 1 8.15 1 5.34 3.565 4.952 6.86H1.977A.977.977 0 0 0 1 7.835v17.187c0 .54.437.977.977.977h19.14c.54 0 .977-.437.977-.977V7.836a.977.977 0 0 0-.977-.977Zm-9.57-3.907a4.695 4.695 0 0 1 4.622 3.906H6.925a4.695 4.695 0 0 1 4.622-3.906Zm8.594 21.094H2.953V8.812h1.953v2.93a.977.977 0 0 0 1.953 0v-2.93h9.375v2.93a.977.977 0 1 0 1.953 0v-2.93h1.954v15.235Z"/>
</svg>
