<svg xmlns="http://www.w3.org/2000/svg" width="150" height="57" fill="none" viewBox="0 0 150 57">
  <path fill="#2B2A29" d="M0 3.844c1.58 0 2.634 1.052 2.634 2.631v25.628c0 1.579-1.054 2.631-2.634 2.631v1.053h11.43v-.053c10.585-.526 15.958-8.525 15.958-16.471 0-7.999-5.373-15.893-15.959-16.419v-.052H0v1.052Zm9.059 30.732V3.949h1.212c6.952 0 10.428 7.63 10.428 15.26 0 7.579-3.476 15.261-10.428 15.367H9.059Zm31.654 1.473c3.687 0 8.427-2.578 8.427-6.683 0-2.315-1.316-3.315-2.739-3.315-1.632 0-3.423 1.316-3.423 3.315 2.423 0 2.95 4.105-.896 4.157-2.896-.263-5.951-3.157-5.951-9.577v-.053h13.377c0-4.367-1.948-12.156-8.532-12.156-15.168 0-15.484 24.312-.263 24.312Zm-4.53-13.524c.106-2.42.949-9.472 4.53-9.472 2.475 0 3.055 6.21 2.686 9.472h-7.215Zm25.44 13.261v-1.052c-1.58 0-2.634-1.053-2.634-2.631V.633h-1.106c-1.738 1.632-4.319 2.368-6.636 2.368-.422 0-.79 0-1.212-.052V4c1.58 0 2.634 1.053 2.634 2.632v25.47c0 1.578-1.054 2.63-2.634 2.63v1.053h11.588Zm13.114 0v-1.052c-1.58 0-2.634-1.053-2.634-2.631V21.052c0-4.526 1.739-7.473 3.319-7.473 1.264 0 2.422 2 2.422 6.683v12.104c0 1.42-.948 2.368-2.37 2.368v1.052h11.06v-1.052c-1.422 0-2.37-.947-2.37-2.368V19.999c.211-3.894 1.791-6.367 3.266-6.367 1.264 0 2.423 1.947 2.423 6.63V32.63c0 9.052 4.792 13.05 9.901 13.05 8.533 0 8.901-8.156 3.371-8.156-1.738 0-2.686 1.42-2.686 2.684h.211c2.264 0 1.79 4.157-.738 4.157-3.423 0-3.74-3.42-3.74-8.367v-14.42c0-3.63-.105-9.682-7.267-9.682-2.897 0-4.583 1.79-5.425 4.052-.843-2.21-2.634-4.052-6.584-4.052-2.317 0-3.845 1.105-4.793 2.736v-2.578h-1.106c-1.738 1.631-4.318 2.368-6.636 2.368-.421 0-.79 0-1.211-.053v1.053c1.58 0 2.633 1.052 2.633 2.631v14.05c0 1.58-1.053 2.632-2.633 2.632v1.052h11.587Zm24.912-20.365c1.58 0 2.633 1.052 2.633 2.631v14.05c0 1.58-1.053 2.632-2.633 2.632v1.053h11.587v-1.053c-1.58 0-2.633-1.052-2.633-2.631v-20.05h-1.159c-1.738 1.631-4.266 2.368-6.583 2.368-.422 0-.791 0-1.212-.052v1.052Zm6.426-5c4.845 0 4.845-6.84 0-6.84-4.899 0-4.899 6.84 0 6.84Zm6.688 3.947v1.053c1.581 0 2.634 1.052 2.634 2.631v14.05c0 1.58-1.053 2.632-2.634 2.632v1.053h11.587v-1.053c-1.58 0-2.633-1.052-2.633-2.631V21.736c.737-7.315 8.532-19.681 14.747-19.681 2.054 0 2.686 3.894-1.843 3.894 0 2 1.738 3.526 3.371 3.526 6.056 0 5.74-9.315-1.528-9.315-5.583 0-11.85 8.21-14.747 15.577v-3.684h-1.106c-1.738 1.631-4.319 2.368-6.636 2.368-.422 0-.791 0-1.212-.052Zm14.326 15.893c0 3.526 3.792 5.894 7.742 5.894 2.739 0 4.846-1.053 6.215-2.684.895 1.684 2.686 2.526 4.477 2.526 2.265 0 4.477-1.368 4.477-3.842h-1.159c0 1-.579 1.632-1.106 1.632-.474 0-.895-.474-.895-1.684v-7.894c0-8.21-1.896-12.682-8.848-12.682-10.85 0-10.324 9.21-5.057 9.21 1.791 0 3.318-.948 3.318-2.948-3.634-.421-3.002-4.789-.263-4.789 3.634 0 4.424 3.947 4.582 7.84-2.686 3.106-13.483 2.37-13.483 9.421Zm13.483-7.21c0 1.21-.052 2.369-.052 3.21v4.79c-.896 1.841-2.423 2.788-3.74 2.788-1.58 0-2.897-1.21-2.897-3.578 0-4.263 4.319-5.104 6.689-7.21ZM43.52 56.774c1.013 0 1.53-.219 1.968-.633.403-.379.645-.908.645-1.518 0-.38-.092-.724-.277-1.024a1.573 1.573 0 0 0-.725-.632v-.069c.196-.138.357-.322.46-.552a1.55 1.55 0 0 0 .15-.667c0-.587-.195-.977-.506-1.266-.45-.402-1.093-.54-1.796-.54h-3.338v6.901h3.419Zm1.266-2.162c0 .31-.092.552-.288.701-.219.184-.541.253-.91.253H41.46V53.68h2.256c.507 0 .703.138.875.322.127.15.196.38.196.61Zm-.392-2.83c0 .219-.068.392-.195.507a.83.83 0 0 1-.553.195H41.46v-1.403h2.026c.334 0 .576.069.702.195.139.115.207.288.207.506Zm8.188 4.992h5.571v-1.253h-4.178v-1.726h3.591v-1.253h-3.591v-1.404h4.017v-1.265h-5.41v6.901Zm14.795-6.901-3.062 6.901h1.461l.553-1.23h3.465l.564 1.23h1.485l-3.062-6.901h-1.404Zm.61 1.415h.103l1.186 3.002h-2.417l1.128-3.002Zm16.095 2.462v-3.877H82.69v3.945c0 .632-.184 1.035-.46 1.3a1.672 1.672 0 0 1-1.186.506c-.472 0-.863-.161-1.174-.495-.288-.276-.484-.701-.484-1.311v-3.945h-1.393v3.877c0 .966.323 1.724.875 2.288.518.517 1.244.85 2.176.85.875 0 1.566-.298 2.106-.816.588-.563.933-1.322.933-2.323Zm6.265-2.635h2.486v5.66h1.347v-5.66h2.487v-1.242h-6.32v1.242Zm16.614 5.66v-1.657l2.935-5.245h-1.508l-2.049 3.784h-.115l-2.015-3.784h-1.588l2.981 5.233v1.668h1.359Z"/>
</svg>
