<svg xmlns="http://www.w3.org/2000/svg" width="20" height="19" fill="none" viewBox="0 0 20 19">
  <path fill="#000" d="m19.154 17.7-4.232-4.231a8.06 8.06 0 0 0 2.015-5.344c0-2.17-.845-4.21-2.38-5.745A8.072 8.072 0 0 0 8.813 0c-2.17 0-4.21.845-5.745 2.38a8.072 8.072 0 0 0-2.38 5.745c0 2.17.846 4.21 2.38 5.745a8.072 8.072 0 0 0 5.745 2.38 8.06 8.06 0 0 0 5.344-2.015l4.232 4.231a.54.54 0 0 0 .766 0 .542.542 0 0 0 0-.766Zm-15.32-4.596A6.997 6.997 0 0 1 1.77 8.125c0-1.88.732-3.65 2.062-4.98a6.997 6.997 0 0 1 4.98-2.062c1.88 0 3.649.733 4.979 2.063a6.997 6.997 0 0 1 2.062 4.979c0 1.88-.732 3.65-2.062 4.98a6.997 6.997 0 0 1-4.98 2.062 6.997 6.997 0 0 1-4.979-2.063Z"/>
</svg>
