<svg xmlns="http://www.w3.org/2000/svg" width="26" height="26" fill="none" viewBox="0 0 26 26">
  <mask id="a" width="26" height="26" x="0" y="0" fill="#000" maskUnits="userSpaceOnUse">
    <path fill="#fff" d="M0 0h26v26H0z"/>
    <path fill-rule="evenodd" d="M13.11 1a12.11 12.11 0 1 0 12.109 12.11A12.123 12.123 0 0 0 13.109 1Zm0 23.438a11.329 11.329 0 1 1 11.328-11.329 11.341 11.341 0 0 1-11.329 11.329Zm6.795-5.929C18.055 16.9 15.578 16 13 16c-2.578 0-5.055.9-6.905 2.51a.273.273 0 0 0-.095.2c0 .076.032.149.09.203.06.055.14.086.224.087a.342.342 0 0 0 .227-.08c1.731-1.505 4.048-2.347 6.459-2.347 2.411 0 4.728.842 6.459 2.347.06.052.142.081.227.08a.338.338 0 0 0 .223-.087.272.272 0 0 0 .091-.203.273.273 0 0 0-.095-.2Zm-4.191-4.408a4.687 4.687 0 1 1-5.209-7.794 4.687 4.687 0 0 1 5.209 7.794Zm-.434-7.146a3.906 3.906 0 1 0-4.34 6.496 3.906 3.906 0 0 0 4.34-6.496Z" clip-rule="evenodd"/>
  </mask>
  <path fill="#000" fill-rule="evenodd" d="M13.11 1a12.11 12.11 0 1 0 12.109 12.11A12.123 12.123 0 0 0 13.109 1Zm0 23.438a11.329 11.329 0 1 1 11.328-11.329 11.341 11.341 0 0 1-11.329 11.329Zm6.795-5.929C18.055 16.9 15.578 16 13 16c-2.578 0-5.055.9-6.905 2.51a.273.273 0 0 0-.095.2c0 .076.032.149.09.203.06.055.14.086.224.087a.342.342 0 0 0 .227-.08c1.731-1.505 4.048-2.347 6.459-2.347 2.411 0 4.728.842 6.459 2.347.06.052.142.081.227.08a.338.338 0 0 0 .223-.087.272.272 0 0 0 .091-.203.273.273 0 0 0-.095-.2Zm-4.191-4.408a4.687 4.687 0 1 1-5.209-7.794 4.687 4.687 0 0 1 5.209 7.794Zm-.434-7.146a3.906 3.906 0 1 0-4.34 6.496 3.906 3.906 0 0 0 4.34-6.496Z" clip-rule="evenodd"/>
  <path fill="#000" d="m6.382 3.04.11.167-.11-.166ZM13.109 1V.8 1ZM1.922 8.475l.185.077-.185-.077Zm-.69 6.997.197-.04-.196.04Zm3.315 6.2-.142.141.142-.141Zm6.2 3.314.039-.196-.039.196Zm6.996-.689.077.185-.077-.185Zm5.435-4.46-.166-.111.166.111Zm2.04-6.728h.2-.2Zm-3.55-8.558-.141.141.141-.141ZM6.816 22.528l-.111.167.11-.167Zm6.293 1.91v.2-.2ZM2.644 17.444l-.185.076.185-.076ZM5.099 5.099l-.141-.141.141.141ZM10.9 2l-.039-.196.04.196Zm11.63 4.817-.167.11.166-.11Zm1.909 6.293h.2-.2Zm-3.322 8.007-.142-.142.142.142Zm-1.211-2.607.132-.15h-.001l-.131.15Zm-13.81 0-.13-.15h-.002l.132.15Zm-.096.2-.2-.002.2.002Zm.09.203.136-.147-.135.147Zm.224.087.003-.2-.003.2Zm.227-.08.13.152.002-.001-.132-.15Zm12.918 0-.132.151h.001l.13-.15Zm.227.08-.003-.2.003.2Zm-6.577-4.11v.2-.2Zm2.605-.79-.112-.166.112.167Zm-5.918-.584.142-.141-.142.141Zm-1.374-3.313h-.2.2Zm2.893-4.33-.076-.185.076.184Zm2.709-.267.039-.196-.04.196Zm2.4 1.283.141-.142-.141.142Zm1.283 2.4-.196.039.196-.04Zm-.267 2.708.185.076-.185-.076Zm-4.33-5.7v-.2.2Zm2.17.658.11-.166-.11.166Zm-4.931.487-.142-.141.141.141Zm-1.146 2.761h-.2.2Zm2.412 3.609.076-.185-.077.185Zm2.256.222.04.196-.04-.196ZM6.493 3.207A11.91 11.91 0 0 1 13.109 1.2V.8a12.31 12.31 0 0 0-6.838 2.074l.222.333ZM2.107 8.552a11.91 11.91 0 0 1 4.386-5.345l-.222-.333A12.31 12.31 0 0 0 1.737 8.4l.37.153Zm-.678 6.88a11.91 11.91 0 0 1 .678-6.88l-.37-.153a12.31 12.31 0 0 0-.7 7.112l.392-.078Zm3.26 6.099a11.91 11.91 0 0 1-3.26-6.098l-.392.078a12.31 12.31 0 0 0 3.368 6.302l.283-.282Zm6.097 3.259a11.91 11.91 0 0 1-6.098-3.26l-.283.283a12.309 12.309 0 0 0 6.303 3.37l.078-.393Zm6.88-.678a11.91 11.91 0 0 1-6.88.678l-.078.392a12.31 12.31 0 0 0 7.112-.7l-.153-.37Zm5.346-4.386a11.91 11.91 0 0 1-5.345 4.386l.153.37a12.31 12.31 0 0 0 5.524-4.534l-.332-.222Zm2.007-6.617a11.91 11.91 0 0 1-2.007 6.617l.332.222a12.31 12.31 0 0 0 2.075-6.839h-.4Zm-3.492-8.417a11.923 11.923 0 0 1 3.492 8.418h.4a12.323 12.323 0 0 0-3.61-8.7l-.282.282ZM13.109 1.2a11.923 11.923 0 0 1 8.418 3.492l.282-.283A12.323 12.323 0 0 0 13.11.8v.4ZM6.705 22.695a11.528 11.528 0 0 0 6.404 1.942v-.4c-2.2 0-4.352-.652-6.182-1.875l-.222.333ZM2.459 17.52a11.529 11.529 0 0 0 4.246 5.174l.222-.333a11.128 11.128 0 0 1-4.099-4.994l-.37.153Zm-.656-6.66a11.528 11.528 0 0 0 .656 6.66l.37-.153a11.128 11.128 0 0 1-.634-6.43l-.392-.078Zm3.155-5.903a11.528 11.528 0 0 0-3.155 5.902l.392.078A11.128 11.128 0 0 1 5.241 5.24l-.283-.283Zm5.902-3.155a11.528 11.528 0 0 0-5.902 3.155l.283.283a11.128 11.128 0 0 1 5.697-3.046l-.078-.392Zm6.661.656a11.528 11.528 0 0 0-6.66-.656l.077.392a11.128 11.128 0 0 1 6.43.633l.153-.37Zm5.174 4.246a11.529 11.529 0 0 0-5.174-4.246l-.153.37a11.128 11.128 0 0 1 4.994 4.098l.333-.222Zm1.942 6.404c0-2.28-.676-4.509-1.942-6.404l-.333.222a11.128 11.128 0 0 1 1.876 6.182h.4Zm-3.38 8.148a11.54 11.54 0 0 0 3.38-8.147h-.4a11.142 11.142 0 0 1-3.263 7.864l.283.283Zm-8.147 3.38a11.54 11.54 0 0 0 8.147-3.38l-.283-.283a11.142 11.142 0 0 1-7.865 3.264v.4ZM13 16.2c2.533 0 4.962.884 6.773 2.46l.263-.302C18.147 16.716 15.623 15.8 13 15.8v.4Zm-6.773 2.46c1.811-1.576 4.24-2.46 6.773-2.46v-.4c-2.623 0-5.147.916-7.036 2.558l.263.302Zm-.027.053c0-.016.007-.036.028-.054l-.265-.3a.473.473 0 0 0-.163.349l.4.005Zm.026.053a.072.072 0 0 1-.026-.053l-.4-.005a.472.472 0 0 0 .155.352l.271-.294Zm.091.034a.138.138 0 0 1-.09-.034l-.272.294c.097.09.226.138.356.14l.006-.4Zm.094-.032a.141.141 0 0 1-.094.032l-.006.4a.54.54 0 0 0 .36-.128l-.26-.303ZM13 16.373c-2.457 0-4.82.858-6.59 2.396l.263.302c1.692-1.472 3.961-2.298 6.327-2.298v-.4Zm6.59 2.396c-1.77-1.538-4.133-2.396-6.59-2.396v.4c2.366 0 4.635.826 6.327 2.298l.263-.302Zm.093.031a.14.14 0 0 1-.094-.032l-.26.304c.1.086.229.13.36.128l-.006-.4Zm.09-.034a.138.138 0 0 1-.09.034l.006.4a.537.537 0 0 0 .356-.14l-.271-.294Zm.027-.053a.072.072 0 0 1-.026.053l.27.294a.472.472 0 0 0 .156-.352l-.4.005Zm-.028-.054c.02.018.028.038.028.054l.4-.005a.473.473 0 0 0-.163-.349l-.265.3Zm-6.663-3.568a4.89 4.89 0 0 0 2.716-.824l-.223-.333a4.488 4.488 0 0 1-2.493.757v.4Zm-3.454-1.433a4.893 4.893 0 0 0 3.454 1.433v-.4a4.492 4.492 0 0 1-3.171-1.316l-.283.283Zm-1.433-3.455a4.893 4.893 0 0 0 1.433 3.455l.283-.283a4.493 4.493 0 0 1-1.316-3.172h-.4Zm.824-2.715a4.887 4.887 0 0 0-.824 2.715h.4c0-.887.263-1.755.756-2.493l-.332-.222Zm2.193-1.8a4.887 4.887 0 0 0-2.193 1.8l.332.222a4.487 4.487 0 0 1 2.014-1.653l-.153-.37Zm2.824-.278a4.888 4.888 0 0 0-2.824.278l.153.37a4.487 4.487 0 0 1 2.593-.256l.078-.392Zm2.502 1.337a4.888 4.888 0 0 0-2.502-1.337l-.078.392c.87.173 1.67.6 2.297 1.228l.283-.283Zm1.338 2.503a4.888 4.888 0 0 0-1.338-2.503l-.283.283a4.487 4.487 0 0 1 1.229 2.298l.392-.078Zm-.278 2.823c.37-.893.466-1.875.278-2.823l-.392.078c.173.87.084 1.772-.256 2.592l.37.153Zm-1.8 2.194a4.886 4.886 0 0 0 1.8-2.194l-.37-.153a4.494 4.494 0 0 1-1.652 2.014l.222.333Zm-2.716-7.77c.733 0 1.45.217 2.06.624l.222-.332a4.106 4.106 0 0 0-2.282-.692v.4ZM10.49 7.584a3.71 3.71 0 0 1 2.62-1.087v-.4A4.11 4.11 0 0 0 10.206 7.3l.283.283Zm-1.087 2.62a3.71 3.71 0 0 1 1.087-2.62l-.283-.283a4.11 4.11 0 0 0-1.204 2.902h.4Zm.625 2.058a3.706 3.706 0 0 1-.625-2.059h-.4c0 .812.24 1.606.692 2.281l.333-.222Zm1.663 1.365a3.707 3.707 0 0 1-1.663-1.365l-.333.222a4.107 4.107 0 0 0 1.843 1.513l.153-.37Zm2.141.211a3.706 3.706 0 0 1-2.14-.21l-.154.369a4.11 4.11 0 0 0 2.373.233l-.079-.392Zm1.898-1.014a3.706 3.706 0 0 1-1.898 1.014l.079.393a4.106 4.106 0 0 0 2.102-1.124l-.283-.283Zm1.014-1.898a3.706 3.706 0 0 1-1.014 1.898l.283.283a4.106 4.106 0 0 0 1.124-2.103l-.393-.078Zm-.21-2.141c.28.677.353 1.422.21 2.141l.393.078a4.106 4.106 0 0 0-.234-2.372l-.37.153ZM15.168 7.12a3.71 3.71 0 0 1 1.364 1.664l.37-.153a4.106 4.106 0 0 0-1.512-1.843l-.223.332Z" mask="url(#a)"/>
</svg>
